<?xml version="1.0" encoding="utf-8"?>
<!-- Generator: Adobe Illustrator 22.0.0, SVG Export Plug-In . SVG Version: 6.00 Build 0)  -->
<svg version="1.1" id="Capa_1" xmlns="http://www.w3.org/2000/svg" xmlns:xlink="http://www.w3.org/1999/xlink" x="0px" y="0px"
	 viewBox="0 0 1024 276.7" style="enable-background:new 0 0 1024 276.7;" xml:space="preserve">
<style type="text/css">
	.st0{fill:#D81F26;}
</style>
<path class="st0" d="M252.2,222.7c-10.8,1.9-21.8,2.5-33.1,4l-34.6-101.4v105.8c-10.8,1.1-20.6,2.6-30.8,4.2V41.5h28.8l39.3,109.9
	V41.5h30.5L252.2,222.7L252.2,222.7z M311.8,112.5c11.7,0,29.7-0.6,40.5-0.6v30.3c-13.4,0-29.1,0-40.5,0.6v45
	c17.8-1.1,35.6-2.6,53.5-3.2v29.1l-83.8,6.6V41.5h83.8v30.3h-53.5C311.8,71.8,311.8,112.5,311.8,112.5z M477.9,71.8h-31.4V211
	c-10.2,0-20.4,0-30.3,0.4V71.8h-31.4V41.5h93.1C477.9,41.5,477.9,71.8,477.9,71.8z M527,110.4h41.4v30.3H527v68.7h-29.7V41.5h84.6
	v30.3H527C527,71.8,527,110.4,527,110.4z M631.1,182.8c17.2,0.4,34.6,1.7,51.5,2.6v29.9c-27.1-1.7-54.1-3.4-81.7-4V41.5h30.3V182.8
	L631.1,182.8z M708.1,217.4c9.6,0.6,19.9,1.1,29.7,2.3V41.5h-29.7V217.4z M870.4,41.5L832,133.6l38.4,101.6
	c-11.4-1.5-22.7-3.6-34.1-5.5l-21.8-56l-22.1,51.5c-11-1.9-21.6-2.5-32.5-4l39-88.7l-35.2-91h32.5l19.9,50.9l21.2-50.9L870.4,41.5
	L870.4,41.5z"/>
</svg>
